<?xml version="1.0" encoding="UTF-8"?>
<!DOCTYPE svg PUBLIC "-//W3C//DTD SVG 1.1//EN" "http://www.w3.org/Graphics/SVG/1.1/DTD/svg11.dtd">
<!-- Creator: CorelDRAW 2019 (64-Bit) -->
<svg xmlns="http://www.w3.org/2000/svg" xml:space="preserve" width="35.3535mm" height="50mm" version="1.1" style="shape-rendering:geometricPrecision; text-rendering:geometricPrecision; image-rendering:optimizeQuality; fill-rule:evenodd; clip-rule:evenodd"
viewBox="0 0 3535.35 5000"
 xmlns:xlink="http://www.w3.org/1999/xlink">
 <defs>
  <style type="text/css">
   <![CDATA[
    .str0 {stroke:black;stroke-width:3.37;stroke-miterlimit:22.9256}
    .fil0 {fill:#D41443}
    .fil1 {fill:white}
   ]]>
  </style>
 </defs>
 <g id="Слой_x0020_1">
  <metadata id="CorelCorpID_0Corel-Layer"/>
  <circle class="fil0 str0" cx="1781.59" cy="1684.64" r="974.54"/>
  <g id="_1744537020912">
   <g>
    <g>
     <path class="fil1" d="M1674.24 1156.77c4.26,-4.29 6.74,-10.21 6.74,-16.28 0,-6.04 -2.49,-11.96 -6.74,-16.25 -4.29,-4.29 -10.21,-6.74 -16.25,-6.74 -6.07,0 -11.99,2.45 -16.28,6.74 -4.26,4.29 -6.71,10.21 -6.71,16.25 0,6.07 2.45,11.99 6.71,16.28 4.29,4.26 10.21,6.71 16.28,6.71 6.04,0 11.96,-2.45 16.25,-6.71z"/>
     <path class="fil1" d="M1863.1 1125.51c-4.26,4.26 -6.71,10.21 -6.71,16.25 0,6.04 2.45,11.99 6.71,16.25 4.29,4.29 10.21,6.74 16.28,6.74 6.04,0 11.99,-2.45 16.25,-6.74 4.29,-4.26 6.74,-10.21 6.74,-16.25 0,-6.04 -2.45,-11.99 -6.74,-16.25 -4.26,-4.29 -10.18,-6.75 -16.25,-6.75 -6.07,0 -11.99,2.45 -16.28,6.75z"/>
     <path class="fil1" d="M1755.09 1185.54c-6.07,0 -11.99,2.45 -16.28,6.74 -4.26,4.26 -6.71,10.21 -6.71,16.25 0,6.07 2.45,11.98 6.71,16.25 4.29,4.29 10.21,6.74 16.28,6.74 6.04,0 11.96,-2.45 16.25,-6.74 4.29,-4.26 6.74,-10.21 6.74,-16.25 0,-6.04 -2.45,-11.96 -6.74,-16.25 -4.3,-4.29 -10.21,-6.74 -16.25,-6.74z"/>
     <path class="fil1" d="M1774.59 1082.8c-4.29,-4.26 -10.21,-6.71 -16.28,-6.71 -6.04,0 -11.96,2.45 -16.25,6.71 -4.26,4.29 -6.71,10.21 -6.71,16.28 0,6.04 2.45,11.95 6.71,16.25 4.29,4.29 10.21,6.74 16.25,6.74 6.07,0 11.99,-2.45 16.28,-6.74 4.27,-4.29 6.72,-10.21 6.72,-16.25 0,-6.05 -2.45,-11.99 -6.72,-16.28z"/>
     <path class="fil1" d="M2181.01 1261.97l218.15 -216.46c7.28,-7.22 11.29,-16.86 11.29,-27.13 -0,-10.27 -4.02,-19.9 -11.29,-27.11l-68.86 -68.33c-7.23,-7.18 -16.85,-11.13 -27.08,-11.13 -10.23,0 -19.86,3.95 -27.08,11.13l-244.31 242.42c-14.56,-39.61 -38.3,-75.64 -70.29,-105.62 -9.27,-8.7 -23.82,-8.22 -32.5,1.05 -8.69,9.26 -8.22,23.81 1.05,32.5 31.18,29.24 52.95,65.36 64.05,105.08 -12.79,-1.77 -25.86,-2.71 -39.14,-2.71 -28.16,0 -55.36,4.13 -80.99,11.77 -0.67,0.17 -1.33,0.36 -1.97,0.59 -48.06,14.71 -90.53,41.86 -123.45,77.55 -8.21,-9.56 -17.13,-18.6 -26.73,-27.05 -9.54,-8.39 -24.07,-7.46 -32.45,2.08 -8.39,9.54 -7.46,24.07 2.08,32.45 10.4,9.14 19.81,19.15 28.22,29.82 -26.87,41.72 -42.44,91.04 -42.44,143.85 0,6.67 0.26,13.27 0.75,19.82 -3.31,-1.85 -7.13,-2.92 -11.2,-2.92l-54.38 0c-12.7,0 -22.99,10.29 -22.99,22.99 0,12.7 10.29,22.99 22.99,22.99l54.38 0c6.44,0 12.24,-2.65 16.42,-6.9 2.08,9.64 4.71,19.09 7.82,28.33l-366.89 0c-12.77,-27.87 -19.92,-58.68 -19.92,-91.1 0,-124.11 103.96,-225.07 231.75,-225.07 27.56,0 54.53,4.65 80.16,13.82 11.95,4.28 25.11,-1.95 29.4,-13.9 4.28,-11.95 -1.94,-25.12 -13.9,-29.4 -26.06,-9.33 -53.27,-14.7 -81.06,-16.11 30.25,-92.04 117.54,-158.77 220.32,-158.77 28.94,0 57.16,5.22 83.87,15.51 11.84,4.55 25.16,-1.34 29.72,-13.2 4.56,-11.85 -1.34,-25.15 -13.2,-29.72 -32.01,-12.33 -65.79,-18.58 -100.4,-18.58 -129.01,0 -237.72,87.8 -268.8,206.38 -137.22,16.36 -243.85,130.77 -243.85,269.04 0,31.95 5.73,62.62 16.18,91.1l-47.47 0c-28.88,0 -52.37,23.51 -52.37,52.41l0 141.15c0,58.23 37.78,107.84 90.27,126.03 77.54,146.81 220.04,254.7 389.38,285.76 16.72,27.56 25.69,59.13 25.69,92.18 0,27.09 -6.25,53.7 -17.98,77.85l-218.71 0c-43.01,0 -78.01,34.8 -78.01,77.58 0,42.78 34.99,77.58 78.01,77.58l623.46 0c43.01,0 78.01,-34.8 78.01,-77.58 0,-42.78 -34.99,-77.58 -78.01,-77.58l-218.71 0c-11.73,-24.15 -17.98,-50.76 -17.98,-77.85 0,-33.05 8.96,-64.62 25.69,-92.18 169.33,-31.06 311.84,-138.95 389.38,-285.76 52.49,-18.19 90.27,-67.8 90.27,-126.03l0 -141.15c0,-28.9 -23.49,-52.41 -52.37,-52.41l-64.02 0c8.93,-26.55 13.79,-54.88 13.79,-84.31 0,-70.62 -27.83,-135.01 -73.33,-183.3l21.41 -21.25c0.07,-0.06 0.12,-0.12 0.19,-0.18zm122.21 -301.12l57.98 57.54 -57.13 56.69 -36.88 -78.48 36.03 -35.75zm-70.68 70.13l36.89 78.48 -31.26 31.02 -36.88 -78.48 31.26 -31.02zm-131.82 130.79l36.88 78.48 -12.45 12.35c-12.32,-9.35 -25.47,-17.7 -39.31,-24.95l-16.38 -34.86 31.26 -31.02zm-198.12 85.73c16.85,-3.8 34.38,-5.88 52.4,-5.88 18.03,0 35.56,2.08 52.41,5.88l0 303.51 -104.81 0 0 -303.51zm-45.99 15.48l0 288.03 -116.46 0c-10.88,-26.06 -16.9,-54.51 -16.9,-84.31 0,-89.95 54.64,-167.71 133.35,-203.72zm210.09 1109.4c17.66,0 32.02,14.17 32.02,31.59 0,17.42 -14.36,31.59 -32.02,31.59l-623.46 0c-17.66,0 -32.02,-14.17 -32.02,-31.59 0,-17.42 14.36,-31.59 32.02,-31.59l623.46 0 0 0zm-268.67 -45.99l-86.12 0c9.18,-24.77 14.01,-51.12 14.01,-77.85 0,-29.63 -5.7,-58.32 -16.57,-84.91 15.05,1.22 30.26,1.87 45.62,1.87 15.36,0 30.57,-0.65 45.61,-1.87 -10.87,26.59 -16.57,55.28 -16.57,84.91 0,26.73 4.83,53.07 14.01,77.85zm-43.06 -206.87c-112.15,0 -215.86,-36.36 -299.91,-97.74l599.82 0c-84.05,61.38 -187.76,97.74 -299.91,97.74zm528 -522.52c3.46,0 6.38,2.94 6.38,6.42l0 141.15c0,48.24 -39.7,87.48 -88.49,87.48 -48.79,0 -88.48,-39.25 -88.48,-87.48 0,-12.7 -10.29,-22.99 -22.99,-22.99 -12.7,0 -22.99,10.29 -22.99,22.99 0,26.89 -12.24,51.9 -33.58,68.61 -10,7.83 -11.75,22.29 -3.92,32.28 7.83,9.99 22.29,11.75 32.28,3.92 11.11,-8.7 20.6,-18.88 28.28,-30.15 21.97,32.2 57.74,54.34 98.8,58.16 -22.11,36 -48.6,69.06 -78.8,98.39l-708.96 0c-30.21,-29.34 -56.7,-62.4 -78.8,-98.39 41.09,-3.82 76.89,-26.01 98.86,-58.25 24.19,35.51 65.13,58.9 111.47,58.9 46.34,0 87.29,-23.39 111.47,-58.9 24.19,35.51 65.13,58.9 111.48,58.9 46.27,0 87.15,-23.31 111.36,-58.73 18.3,26.98 46.47,47.1 80.32,55.11 12.36,2.91 24.74,-4.73 27.67,-17.08 2.92,-12.36 -4.73,-24.75 -17.08,-27.67 -39.92,-9.44 -67.8,-44.43 -67.8,-85.09 0,-12.7 -10.29,-22.99 -22.99,-22.99 -12.7,0 -22.99,10.29 -22.99,22.99 0,48.24 -39.69,87.48 -88.48,87.48 -48.79,0 -88.48,-39.25 -88.48,-87.48 0,-12.7 -10.29,-22.99 -22.99,-22.99 -12.7,0 -22.99,10.29 -22.99,22.99 0,48.24 -39.69,87.48 -88.48,87.48 -48.79,0 -88.48,-39.25 -88.48,-87.48 0,-12.7 -10.29,-22.99 -22.99,-22.99 -12.7,0 -22.99,10.29 -22.99,22.99 0,48.24 -39.69,87.48 -88.48,87.48 -48.78,0 -88.48,-39.25 -88.48,-87.48l0 -141.15c0,-3.48 2.92,-6.42 6.38,-6.42l1055.99 0 0 -0zm-96.22 -130.3c0,29.8 -6.02,58.26 -16.9,84.31l-116.46 0 0 -288.03c78.72,36.01 133.35,113.76 133.35,203.72zm-51.38 -339.31l31.24 -31 36.88 78.48 -31.24 31 -36.88 -78.48z"/>
     <path class="fil1" d="M1546.03 1319.39c12.7,0 22.99,-10.29 22.99,-22.99 0,-12.7 -10.29,-22.99 -22.99,-22.99l-58.26 0c-12.7,0 -22.99,10.29 -22.99,22.99 0,12.7 10.29,22.99 22.99,22.99l58.26 0z"/>
     <path class="fil1" d="M1464.15 1377.33c0,-12.7 -10.29,-22.99 -22.99,-22.99l-54.38 0c-12.7,0 -22.99,10.29 -22.99,22.99 0,12.7 10.29,22.99 22.99,22.99l54.38 0c12.7,0 22.99,-10.29 22.99,-22.99z"/>
     <path class="fil1" d="M1577.1 1400.32l54.38 0c12.7,0 22.99,-10.29 22.99,-22.99 0,-12.7 -10.29,-22.99 -22.99,-22.99l-54.38 0c-12.7,0 -22.99,10.29 -22.99,22.99 0,12.7 10.3,22.99 22.99,22.99z"/>
     <path class="fil1" d="M1480.61 1486.67l54.38 0c12.7,0 22.99,-10.29 22.99,-22.99 0,-12.7 -10.29,-22.99 -22.99,-22.99l-54.38 0c-12.7,0 -22.99,10.29 -22.99,22.99 0,12.7 10.29,22.99 22.99,22.99z"/>
     <path class="fil1" d="M1354.91 1483.6c-12.7,0 -22.99,10.29 -22.99,22.99 0,12.7 10.29,22.99 22.99,22.99l54.38 0c12.7,0 22.99,-10.29 22.99,-22.99 0,-12.7 -10.29,-22.99 -22.99,-22.99l-54.38 0z"/>
    </g>
   </g>
   <g>
   </g>
   <g>
   </g>
   <g>
   </g>
   <g>
   </g>
   <g>
   </g>
   <g>
   </g>
   <g>
   </g>
   <g>
   </g>
   <g>
   </g>
   <g>
   </g>
   <g>
   </g>
   <g>
   </g>
   <g>
   </g>
   <g>
   </g>
   <g>
   </g>
  </g>
 </g>
</svg>
